<?xml version="1.0" encoding="utf-8"?>
<svg x="629.224px" y="647.871px" width="741.486px" height="804.337px" viewBox="629.224 647.871 741.486 804.337" xmlns="http://www.w3.org/2000/svg" xmlns:xlink="http://www.w3.org/1999/xlink">
  <!--Generated by AMDN-->
  <g id="Logo">
    <path id="Compound Group" style="fill:#000000;fill-opacity:1;fill-rule:evenodd;opacity:1;stroke:none;" d="M679.221,696.756 C679.221,696.756,1318.42,696.756,1318.42,696.756 C1318.42,696.756,1318.42,1404.04,1318.42,1404.04 C1318.42,1404.04,679.221,1404.04,679.221,1404.04 C679.221,1404.04,679.221,696.756,679.221,696.756 z M848.753,1139.73 C870.928,1124.44,893.102,1109.15,915.277,1093.87 C920.885,1090.07,927.296,1089.41,933.31,1091.78 C958.901,1102.09,984.492,1112.39,1010.08,1122.7 C1053.37,1140.19,1102.73,1133.71,1140.12,1105.93 C1163.78,1088.39,1187.43,1070.86,1211.09,1053.33 C1188.27,1022.53,1165.44,991.735,1142.62,960.937 C1118.96,978.468,1095.31,996,1071.65,1013.53 C1065.93,1017.69,1059.27,1018.48,1053.04,1016.03 C1027.45,1005.72,1001.86,995.413,976.271,985.107 C934.516,968.238,886.981,973.626,850.004,999.184 C827.83,1014.47,805.656,1029.76,783.481,1045.04 C805.238,1076.61,826.996,1108.17,848.753,1139.73 z"/>
  </g>
</svg>
