<?xml version="1.0" encoding="utf-8"?>
<svg x="451.601px" y="511.436px" width="4066.19px" height="1070.89px" viewBox="451.601 511.436 4066.19 1070.89" xmlns="http://www.w3.org/2000/svg" xmlns:xlink="http://www.w3.org/1999/xlink">
  <!--Generated by AMDN-->
  <g id="Logo">
    <path id="Compound Group" style="fill:#000000;fill-opacity:1;fill-rule:evenodd;opacity:1;stroke:none;" d="M679.221,696.756 C679.221,696.756,1318.42,696.756,1318.42,696.756 C1318.42,696.756,1318.42,1404.04,1318.42,1404.04 C1318.42,1404.04,679.221,1404.04,679.221,1404.04 C679.221,1404.04,679.221,696.756,679.221,696.756 z M848.753,1139.73 C870.928,1124.44,893.102,1109.15,915.277,1093.87 C920.885,1090.07,927.296,1089.41,933.31,1091.78 C958.901,1102.09,984.492,1112.39,1010.08,1122.7 C1053.37,1140.19,1102.73,1133.71,1140.12,1105.93 C1163.78,1088.39,1187.43,1070.86,1211.09,1053.33 C1188.27,1022.53,1165.44,991.735,1142.62,960.937 C1118.96,978.468,1095.31,996,1071.65,1013.53 C1065.93,1017.69,1059.27,1018.48,1053.04,1016.03 C1027.45,1005.72,1001.86,995.413,976.271,985.107 C934.516,968.238,886.981,973.626,850.004,999.184 C827.83,1014.47,805.656,1029.76,783.481,1045.04 C805.238,1076.61,826.996,1108.17,848.753,1139.73 z"/>
    <g id="Text">
      <g id="Text">
        <path style="fill:#000000;fill-opacity:1;fill-rule:nonzero;opacity:1;stroke:none;" d="M1678.01,1394.04 C1678.01,1394.04,1507.12,1394.04,1507.12,1394.04 C1507.12,1394.04,1507.12,724.044,1507.12,724.044 C1507.12,724.044,1862.52,724.044,1862.52,724.044 C1916.45,724.044,1961.6,732.044,1997.96,748.044 C2034.31,764.044,2061.73,787.211,2080.22,817.544 C2098.7,847.877,2107.94,885.044,2107.94,929.044 C2107.94,964.377,2102.33,994.877,2091.12,1020.54 C2079.91,1046.21,2062.19,1066.88,2037.95,1082.54 C2013.71,1098.21,1982.2,1108.71,1943.42,1114.04 C1943.42,1114.04,1943.42,1124.04,1943.42,1124.04 C1974.93,1132.71,1997.5,1145.54,2011.14,1162.54 C2024.77,1179.54,2037.34,1200.71,2048.86,1226.04 C2048.86,1226.04,2124.3,1394.04,2124.3,1394.04 C2124.3,1394.04,1927.06,1394.04,1927.06,1394.04 C1927.06,1394.04,1854.34,1230.04,1854.34,1230.04 C1847.07,1213.38,1839.5,1200.38,1831.62,1191.04 C1823.74,1181.71,1813.44,1175.21,1800.71,1171.54 C1787.99,1167.88,1770.42,1166.04,1748,1166.04 C1748,1166.04,1678.01,1166.04,1678.01,1166.04 C1678.01,1166.04,1678.01,1394.04,1678.01,1394.04 z M1678.01,893.044 C1678.01,893.044,1678.01,1026.04,1678.01,1026.04 C1678.01,1026.04,1860.71,1026.04,1860.71,1026.04 C1885.55,1026.04,1903.12,1022.04,1913.42,1014.04 C1923.73,1006.04,1928.88,987.711,1928.88,959.044 C1928.88,932.377,1923.73,914.711,1913.42,906.044 C1903.12,897.377,1885.55,893.044,1860.71,893.044 C1860.71,893.044,1678.01,893.044,1678.01,893.044 z"/>
      </g>
      <g id="Text">
        <path style="fill:#000000;fill-opacity:1;fill-rule:nonzero;opacity:1;stroke:none;" d="M2519.88,1404.04 C2449.59,1404.04,2389.14,1389.88,2338.55,1361.54 C2287.95,1333.21,2249.32,1293.21,2222.65,1241.54 C2195.99,1189.88,2182.66,1129.04,2182.66,1059.04 C2182.66,989.044,2195.99,928.211,2222.65,876.544 C2249.32,824.877,2287.95,784.877,2338.55,756.544 C2389.14,728.211,2449.59,714.044,2519.88,714.044 C2592.6,714.044,2654.25,728.211,2704.85,756.544 C2755.45,784.877,2794.08,824.877,2820.74,876.544 C2847.4,928.211,2860.74,989.044,2860.74,1059.04 C2860.74,1129.04,2847.4,1189.88,2820.74,1241.54 C2794.08,1293.21,2755.45,1333.21,2704.85,1361.54 C2654.25,1389.88,2592.6,1404.04,2519.88,1404.04 z M2519.88,1224.04 C2561.09,1224.04,2593.2,1219.54,2616.23,1210.54 C2639.26,1201.54,2655.46,1185.04,2664.86,1161.04 C2674.25,1137.04,2678.95,1103.04,2678.95,1059.04 C2678.95,1014.38,2674.25,980.211,2664.86,956.544 C2655.46,932.877,2639.26,916.544,2616.23,907.544 C2593.2,898.544,2561.09,894.044,2519.88,894.044 C2478.67,894.044,2446.86,898.544,2424.44,907.544 C2402.02,916.544,2386.42,932.877,2377.63,956.544 C2368.84,980.211,2364.45,1014.38,2364.45,1059.04 C2364.45,1103.04,2368.84,1137.04,2377.63,1161.04 C2386.42,1185.04,2402.02,1201.54,2424.44,1210.54 C2446.86,1219.54,2478.67,1224.04,2519.88,1224.04 z"/>
      </g>
      <g id="Text">
        <path style="fill:#000000;fill-opacity:1;fill-rule:nonzero;opacity:1;stroke:none;" d="M3284.49,1404.04 C3214.2,1404.04,3153.76,1389.88,3103.16,1361.54 C3052.56,1333.21,3013.93,1293.21,2987.27,1241.54 C2960.61,1189.88,2947.28,1129.04,2947.28,1059.04 C2947.28,989.044,2960.61,928.211,2987.27,876.544 C3013.93,824.877,3052.56,784.877,3103.16,756.544 C3153.76,728.211,3214.2,714.044,3284.49,714.044 C3357.21,714.044,3418.87,728.211,3469.47,756.544 C3520.06,784.877,3558.69,824.877,3585.36,876.544 C3612.02,928.211,3625.35,989.044,3625.35,1059.04 C3625.35,1129.04,3612.02,1189.88,3585.36,1241.54 C3558.69,1293.21,3520.06,1333.21,3469.47,1361.54 C3418.87,1389.88,3357.21,1404.04,3284.49,1404.04 z M3284.49,1224.04 C3325.7,1224.04,3357.82,1219.54,3380.84,1210.54 C3403.87,1201.54,3420.08,1185.04,3429.47,1161.04 C3438.86,1137.04,3443.56,1103.04,3443.56,1059.04 C3443.56,1014.38,3438.86,980.211,3429.47,956.544 C3420.08,932.877,3403.87,916.544,3380.84,907.544 C3357.82,898.544,3325.7,894.044,3284.49,894.044 C3243.29,894.044,3211.48,898.544,3189.06,907.544 C3166.63,916.544,3151.03,932.877,3142.24,956.544 C3133.46,980.211,3129.06,1014.38,3129.06,1059.04 C3129.06,1103.04,3133.46,1137.04,3142.24,1161.04 C3151.03,1185.04,3166.63,1201.54,3189.06,1210.54 C3211.48,1219.54,3243.29,1224.04,3284.49,1224.04 z"/>
      </g>
      <g id="Text">
        <path style="fill:#000000;fill-opacity:1;fill-rule:nonzero;opacity:1;stroke:none;" d="M4080.65,1394.04 C4080.65,1394.04,3909.77,1394.04,3909.77,1394.04 C3909.77,1394.04,3909.77,724.044,3909.77,724.044 C3909.77,724.044,4080.65,724.044,4080.65,724.044 C4080.65,724.044,4080.65,1394.04,4080.65,1394.04 z M4295.16,893.044 C4295.16,893.044,3694.34,893.044,3694.34,893.044 C3694.34,893.044,3694.34,724.044,3694.34,724.044 C3694.34,724.044,4295.16,724.044,4295.16,724.044 C4295.16,724.044,4295.16,893.044,4295.16,893.044 z"/>
      </g>
    </g>
  </g>
</svg>
