<?xml version="1.0" encoding="utf-8"?>
<svg x="0pt" y="0pt" width="24pt" height="24pt" viewBox="0 0 24 24" xmlns="http://www.w3.org/2000/svg" xmlns:xlink="http://www.w3.org/1999/xlink">
  <!--Generated by AMDN-->
  <g id="Layer 1">
    <g id="Layer 1">
      <path id="Path 0" style="fill:none;opacity:1;stroke:#000000;stroke-linecap:butt;stroke-linejoin:miter;stroke-miterlimit:10;stroke-opacity:1;stroke-width:0.05;" d="M2,2.99994 C2,2.99994,2.45531,3,2.9918,3 C2.9918,3,21.0082,3,21.0082,3 C21.556,3,22,3.00446,22,3.00446 C22,3.00446,22,21.0073,22,21.0073 C22,21.0073,21.5447,21,21.0082,21 C21.0082,21,2.9918,21,2.9918,21 C2.44405,21,2,21.0099,2,21.0099 C2,21.0099,2,2.99994,2,2.99994 z M12,15 C10.3431,15,9,13.6569,9,12 C9,10.3431,10.3431,9,12,9 C13.6569,9,15,10.3431,15,12 C15,13.6569,13.6569,15,12,15 z M12,17 C14.7614,17,17,14.7614,17,12 C17,9.23858,14.7614,7,12,7 C9.23858,7,7,9.23858,7,12 C7,14.7614,9.23858,17,12,17 z M18,5 C18,5,18,7,18,7 C18,7,20,7,20,7 C20,7,20,5,20,5 C20,5,18,5,18,5 z"/>
      <path id="Layer 1" style="fill:none;opacity:1;stroke:#000000;stroke-linecap:butt;stroke-linejoin:miter;stroke-miterlimit:10;stroke-opacity:1;stroke-width:0.05;" d="M2,2.99994 C2,2.99994,2.45531,3,2.9918,3 C2.9918,3,21.0082,3,21.0082,3 C21.556,3,22,3.00446,22,3.00446 C22,3.00446,22,21.0073,22,21.0073 C22,21.0073,21.5447,21,21.0082,21 C21.0082,21,2.9918,21,2.9918,21 C2.44405,21,2,21.0099,2,21.0099 C2,21.0099,2,2.99994,2,2.99994 z M12,15 C10.3431,15,9,13.6569,9,12 C9,10.3431,10.3431,9,12,9 C13.6569,9,15,10.3431,15,12 C15,13.6569,13.6569,15,12,15 z M12,17 C14.7614,17,17,14.7614,17,12 C17,9.23858,14.7614,7,12,7 C9.23858,7,7,9.23858,7,12 C7,14.7614,9.23858,17,12,17 z M18,5 C18,5,18,7,18,7 C18,7,20,7,20,7 C20,7,20,5,20,5 C20,5,18,5,18,5 z"/>
    </g>
  </g>
</svg>
