<?xml version="1.0" encoding="utf-8"?>
<svg x="0pt" y="0pt" width="24pt" height="24pt" viewBox="0 0 24 24" xmlns="http://www.w3.org/2000/svg" xmlns:xlink="http://www.w3.org/1999/xlink">
  <!--Generated by AMDN-->
  <g id="Layer 1">
    <g id="Layer 2">
      <path id="Path" style="fill:#000000;fill-opacity:1;fill-rule:evenodd;opacity:1;stroke:none;" d="M2,19.3153 C2,19.3153,4.05317,19.3153,4.05317,19.3153 C4.05317,19.3153,4.05317,21,4.05317,21 C4.05317,21,2,21,2,21 C2,21,2,19.3153,2,19.3153 z"/>
      <path id="Path" style="fill:#000000;fill-opacity:1;fill-rule:evenodd;opacity:1;stroke:none;" d="M19.9468,19.3153 C19.9468,19.3153,22,19.3153,22,19.3153 C22,19.3153,22,21,22,21 C22,21,19.9468,21,19.9468,21 C19.9468,21,19.9468,19.3153,19.9468,19.3153 z"/>
      <path id="Path" style="fill:#000000;fill-opacity:1;fill-rule:evenodd;opacity:1;stroke:none;" d="M19.9468,3 C19.9468,3,22,3,22,3 C22,3,22,4.68465,22,4.68465 C22,4.68465,19.9468,4.68465,19.9468,4.68465 C19.9468,4.68465,19.9468,3,19.9468,3 z"/>
      <path id="Path" style="fill:#000000;fill-opacity:1;fill-rule:evenodd;opacity:1;stroke:none;" d="M2,3 C2,3,4.05317,3,4.05317,3 C4.05317,3,4.05317,4.68465,4.05317,4.68465 C4.05317,4.68465,2,4.68465,2,4.68465 C2,4.68465,2,3,2,3 z"/>
    </g>
    <path id="Path 0" style="fill:#000000;fill-opacity:1;fill-rule:nonzero;opacity:1;stroke:none;" d="M2,3.9934 C2,3.44476,2.45531,3,2.9918,3 C2.9918,3,21.0082,3,21.0082,3 C21.556,3,22,3.44495,22,3.9934 C22,3.9934,22,20.0066,22,20.0066 C22,20.5552,21.5447,21,21.0082,21 C21.0082,21,2.9918,21,2.9918,21 C2.44405,21,2,20.5551,2,20.0066 C2,20.0066,2,3.9934,2,3.9934 z M12,15 C10.3431,15,9,13.6569,9,12 C9,10.3431,10.3431,9,12,9 C13.6569,9,15,10.3431,15,12 C15,13.6569,13.6569,15,12,15 z M12,17 C14.7614,17,17,14.7614,17,12 C17,9.23858,14.7614,7,12,7 C9.23858,7,7,9.23858,7,12 C7,14.7614,9.23858,17,12,17 z M18,5 C18,5,18,7,18,7 C18,7,20,7,20,7 C20,7,20,5,20,5 C20,5,18,5,18,5 z"/>
  </g>
</svg>
