<?xml version="1.0" encoding="utf-8"?>
<svg x="0pt" y="3.05176e-05pt" width="800pt" height="800pt" viewBox="0 3.05176e-05 800 800" xmlns="http://www.w3.org/2000/svg" xmlns:xlink="http://www.w3.org/1999/xlink">
  <!--Generated by AMDN-->
  <g id="Layer 1">
    <g id="Logo">
      <path id="Compound Group" style="fill:#000000;fill-opacity:1;fill-rule:evenodd;opacity:1;stroke:none;" d="M80.4006,46.3581 C80.4006,46.3581,719.599,46.3581,719.599,46.3581 C719.599,46.3581,719.599,753.642,719.599,753.642 C719.599,753.642,80.4006,753.642,80.4006,753.642 C80.4006,753.642,80.4006,46.3581,80.4006,46.3581 z M249.933,489.332 C272.108,474.042,294.282,458.752,316.457,443.472 C322.065,439.672,328.476,439.012,334.49,441.382 C360.081,451.692,385.672,461.992,411.26,472.302 C454.55,489.792,503.91,483.312,541.3,455.532 C564.96,437.992,588.609,420.462,612.27,402.932 C589.45,372.132,566.62,341.337,543.8,310.539 C520.14,328.07,496.49,345.602,472.83,363.132 C467.109,367.292,460.45,368.082,454.219,365.632 C428.63,355.322,403.04,345.015,377.451,334.709 C335.696,317.84,288.161,323.228,251.184,348.786 C229.01,364.072,206.836,379.362,184.661,394.642 C206.418,426.212,228.176,457.772,249.933,489.332 z"/>
    </g>
  </g>
</svg>
