<svg width="330" height="301" viewBox="0 0 29702 20331" xmlns="http://www.w3.org/2000/svg"><clipPath id="a"><path d="M0 0h29702v20331H0z"/><path d="M0 0h29702v20331H0z"/></clipPath><g style="clip-path:url(#a)"><path style="fill:#fff;fill-opacity:1;fill-rule:evenodd;opacity:1;stroke:none" d="M14852 20331H1V1h29701v20330z"/><path style="fill:#000;fill-opacity:1;fill-rule:evenodd;opacity:1;stroke:none" d="M14852 20331H-394.915V1H30097.9v20330z"/><path style="fill:#fff;fill-opacity:1;fill-rule:evenodd;opacity:1;stroke:none" d="m14851 2876 233 716 755-2-612 443 235 720-612-445-613 445 235-720-612-444h757zm3125 838 233 718 757 2-614 446 235 718-612-445-613 445 235-718-612-446h755zm2289 2288 232 718h754l-614 446 234 718-612-444-612 444 235-718-614-446h755zm836 3124 232 716h754l-614 445 234 719-612-444-612 444 235-719-614-445h753zm-837 3123 233 714 755-1-612 444 234 720-612-445-612 445 235-716-614-450 755-2zm-2287 2286 233 714 757-1-614 444 234 720-612-445-612 445 235-718-614-446 755-2zm-3126 838 233 716 757-2-614 447 235 719-612-446-613 445 235-718-612-447h755zm-3124-838 231 714 759-1-614 444 234 720-612-445-614 445 235-718-612-446 755-2zm-2286-2286 233 714 758-1-613 444 234 720-614-445-614 445 235-718-612-446 755-2zm-835-3123 231 716h753l-614 445 235 719-612-444-613 444 235-719-612-445h755zm835-3124 233 718h757l-612 446 234 718-614-444-614 444 235-718-612-446h755zm2288-2288 233 718 757 2-612 446 234 716-614-444-614 444 235-718-612-446h755z"/></g><clipPath id="b"><path d="M0 0h29702v20331H0z"/><path d="M0 0h29702v20331H0z"/></clipPath><g style="clip-path:url(#b)"/></svg>